<svg id="visual" viewBox="0 0 960 540" width="960" height="540" xmlns="http://www.w3.org/2000/svg" xmlns:xlink="http://www.w3.org/1999/xlink" version="1.1"><path d="M0 229L9.3 234.7C18.7 240.3 37.3 251.7 56.2 245.2C75 238.7 94 214.3 112.8 205.3C131.7 196.3 150.3 202.7 169.2 214C188 225.3 207 241.7 225.8 246.8C244.7 252 263.3 246 282.2 245.5C301 245 320 250 338.8 240.3C357.7 230.7 376.3 206.3 395.2 192.5C414 178.7 433 175.3 451.8 190C470.7 204.7 489.3 237.3 508.2 248.5C527 259.7 546 249.3 564.8 234.8C583.7 220.3 602.3 201.7 621.2 197.8C640 194 659 205 677.8 216.7C696.7 228.3 715.3 240.7 734.2 249C753 257.3 772 261.7 790.8 261.2C809.7 260.7 828.3 255.3 847.2 255.8C866 256.3 885 262.7 903.8 254C922.7 245.3 941.3 221.7 950.7 209.8L960 198L960 541L950.7 541C941.3 541 922.7 541 903.8 541C885 541 866 541 847.2 541C828.3 541 809.7 541 790.8 541C772 541 753 541 734.2 541C715.3 541 696.7 541 677.8 541C659 541 640 541 621.2 541C602.3 541 583.7 541 564.8 541C546 541 527 541 508.2 541C489.3 541 470.7 541 451.8 541C433 541 414 541 395.2 541C376.3 541 357.7 541 338.8 541C320 541 301 541 282.2 541C263.3 541 244.7 541 225.8 541C207 541 188 541 169.2 541C150.3 541 131.7 541 112.8 541C94 541 75 541 56.2 541C37.3 541 18.7 541 9.3 541L0 541Z" fill="#96c932"></path><path d="M0 225L9.3 239.8C18.7 254.7 37.3 284.3 56.2 295.5C75 306.7 94 299.3 112.8 298.7C131.7 298 150.3 304 169.2 305.5C188 307 207 304 225.8 289.8C244.7 275.7 263.3 250.3 282.2 237.3C301 224.3 320 223.7 338.8 238.8C357.7 254 376.3 285 395.2 294C414 303 433 290 451.8 273.8C470.7 257.7 489.3 238.3 508.2 233.2C527 228 546 237 564.8 240.7C583.7 244.3 602.3 242.7 621.2 245.2C640 247.7 659 254.3 677.8 250.2C696.7 246 715.3 231 734.2 230.3C753 229.7 772 243.3 790.8 255.2C809.7 267 828.3 277 847.2 276.2C866 275.3 885 263.7 903.8 266.8C922.7 270 941.3 288 950.7 297L960 306L960 541L950.7 541C941.3 541 922.7 541 903.8 541C885 541 866 541 847.2 541C828.3 541 809.7 541 790.8 541C772 541 753 541 734.2 541C715.3 541 696.7 541 677.8 541C659 541 640 541 621.2 541C602.3 541 583.7 541 564.8 541C546 541 527 541 508.2 541C489.3 541 470.7 541 451.8 541C433 541 414 541 395.2 541C376.3 541 357.7 541 338.8 541C320 541 301 541 282.2 541C263.3 541 244.7 541 225.8 541C207 541 188 541 169.2 541C150.3 541 131.7 541 112.8 541C94 541 75 541 56.2 541C37.3 541 18.7 541 9.3 541L0 541Z" fill="#82b72d"></path><path d="M0 276L9.3 275.3C18.7 274.7 37.3 273.3 56.2 277.2C75 281 94 290 112.8 300.3C131.7 310.7 150.3 322.3 169.2 316.5C188 310.7 207 287.3 225.8 277.5C244.7 267.7 263.3 271.3 282.2 281.5C301 291.7 320 308.3 338.8 315.5C357.7 322.7 376.3 320.3 395.2 320C414 319.7 433 321.3 451.8 318.2C470.7 315 489.3 307 508.2 301.8C527 296.7 546 294.3 564.8 288.5C583.7 282.7 602.3 273.3 621.2 274.3C640 275.3 659 286.7 677.8 294.3C696.7 302 715.3 306 734.2 315.3C753 324.7 772 339.3 790.8 346.2C809.7 353 828.3 352 847.2 341.7C866 331.3 885 311.7 903.8 309C922.7 306.3 941.3 320.7 950.7 327.8L960 335L960 541L950.7 541C941.3 541 922.7 541 903.8 541C885 541 866 541 847.2 541C828.3 541 809.7 541 790.8 541C772 541 753 541 734.2 541C715.3 541 696.7 541 677.8 541C659 541 640 541 621.2 541C602.3 541 583.7 541 564.8 541C546 541 527 541 508.2 541C489.3 541 470.7 541 451.8 541C433 541 414 541 395.2 541C376.3 541 357.7 541 338.8 541C320 541 301 541 282.2 541C263.3 541 244.7 541 225.8 541C207 541 188 541 169.2 541C150.3 541 131.7 541 112.8 541C94 541 75 541 56.2 541C37.3 541 18.7 541 9.3 541L0 541Z" fill="#6fa527"></path><path d="M0 392L9.3 383.3C18.7 374.7 37.3 357.3 56.2 345.8C75 334.3 94 328.7 112.8 332.5C131.7 336.3 150.3 349.7 169.2 350.7C188 351.7 207 340.3 225.8 339.5C244.7 338.7 263.3 348.3 282.2 348.7C301 349 320 340 338.8 336.3C357.7 332.7 376.3 334.3 395.2 343.8C414 353.3 433 370.7 451.8 371.7C470.7 372.7 489.3 357.3 508.2 356.2C527 355 546 368 564.8 365C583.7 362 602.3 343 621.2 339.5C640 336 659 348 677.8 353.2C696.7 358.3 715.3 356.7 734.2 351.2C753 345.7 772 336.3 790.8 337.3C809.7 338.3 828.3 349.7 847.2 354.3C866 359 885 357 903.8 359C922.7 361 941.3 367 950.7 370L960 373L960 541L950.7 541C941.3 541 922.7 541 903.8 541C885 541 866 541 847.2 541C828.3 541 809.7 541 790.8 541C772 541 753 541 734.2 541C715.3 541 696.7 541 677.8 541C659 541 640 541 621.2 541C602.3 541 583.7 541 564.8 541C546 541 527 541 508.2 541C489.3 541 470.7 541 451.8 541C433 541 414 541 395.2 541C376.3 541 357.7 541 338.8 541C320 541 301 541 282.2 541C263.3 541 244.7 541 225.8 541C207 541 188 541 169.2 541C150.3 541 131.7 541 112.8 541C94 541 75 541 56.2 541C37.3 541 18.7 541 9.3 541L0 541Z" fill="#5d9322"></path><path d="M0 431L9.3 431.7C18.7 432.3 37.3 433.7 56.2 425C75 416.3 94 397.7 112.8 395.7C131.7 393.7 150.3 408.3 169.2 414.7C188 421 207 419 225.8 410.8C244.7 402.7 263.3 388.3 282.2 386.5C301 384.7 320 395.3 338.8 405C357.7 414.7 376.3 423.3 395.2 423.2C414 423 433 414 451.8 409.3C470.7 404.7 489.3 404.3 508.2 403.8C527 403.3 546 402.7 564.8 400C583.7 397.3 602.3 392.7 621.2 387C640 381.3 659 374.7 677.8 376C696.7 377.3 715.3 386.7 734.2 397C753 407.3 772 418.7 790.8 424.8C809.7 431 828.3 432 847.2 432.3C866 432.7 885 432.3 903.8 423.7C922.7 415 941.3 398 950.7 389.5L960 381L960 541L950.7 541C941.3 541 922.7 541 903.8 541C885 541 866 541 847.2 541C828.3 541 809.7 541 790.8 541C772 541 753 541 734.2 541C715.3 541 696.7 541 677.8 541C659 541 640 541 621.2 541C602.3 541 583.7 541 564.8 541C546 541 527 541 508.2 541C489.3 541 470.7 541 451.8 541C433 541 414 541 395.2 541C376.3 541 357.7 541 338.8 541C320 541 301 541 282.2 541C263.3 541 244.7 541 225.8 541C207 541 188 541 169.2 541C150.3 541 131.7 541 112.8 541C94 541 75 541 56.2 541C37.3 541 18.7 541 9.3 541L0 541Z" fill="#4c811d"></path><path d="M0 428L9.3 431.3C18.7 434.7 37.3 441.3 56.2 442.8C75 444.3 94 440.7 112.8 437.7C131.7 434.7 150.3 432.3 169.2 432.8C188 433.3 207 436.7 225.8 439.7C244.7 442.7 263.3 445.3 282.2 441.3C301 437.3 320 426.7 338.8 421.5C357.7 416.3 376.3 416.7 395.2 417.8C414 419 433 421 451.8 425.7C470.7 430.3 489.3 437.7 508.2 442.7C527 447.7 546 450.3 564.8 449.2C583.7 448 602.3 443 621.2 439C640 435 659 432 677.8 436.7C696.7 441.3 715.3 453.7 734.2 459.7C753 465.7 772 465.3 790.8 464.8C809.7 464.3 828.3 463.7 847.2 462.3C866 461 885 459 903.8 452.2C922.7 445.3 941.3 433.7 950.7 427.8L960 422L960 541L950.7 541C941.3 541 922.7 541 903.8 541C885 541 866 541 847.2 541C828.3 541 809.7 541 790.8 541C772 541 753 541 734.2 541C715.3 541 696.7 541 677.8 541C659 541 640 541 621.2 541C602.3 541 583.7 541 564.8 541C546 541 527 541 508.2 541C489.3 541 470.7 541 451.8 541C433 541 414 541 395.2 541C376.3 541 357.7 541 338.8 541C320 541 301 541 282.2 541C263.3 541 244.7 541 225.8 541C207 541 188 541 169.2 541C150.3 541 131.7 541 112.8 541C94 541 75 541 56.2 541C37.3 541 18.7 541 9.3 541L0 541Z" fill="#3c7017"></path><path d="M0 511L9.3 503.8C18.7 496.7 37.3 482.3 56.2 475C75 467.7 94 467.3 112.8 473.5C131.7 479.7 150.3 492.3 169.2 496C188 499.7 207 494.3 225.8 491.7C244.7 489 263.3 489 282.2 492C301 495 320 501 338.8 496.2C357.7 491.3 376.3 475.7 395.2 467.7C414 459.7 433 459.3 451.8 462.3C470.7 465.3 489.3 471.7 508.2 472.8C527 474 546 470 564.8 468.5C583.7 467 602.3 468 621.2 470.3C640 472.7 659 476.3 677.8 479.8C696.7 483.3 715.3 486.7 734.2 489.3C753 492 772 494 790.8 488.7C809.7 483.3 828.3 470.7 847.2 471C866 471.3 885 484.7 903.8 490.8C922.7 497 941.3 496 950.7 495.5L960 495L960 541L950.7 541C941.3 541 922.7 541 903.8 541C885 541 866 541 847.2 541C828.3 541 809.7 541 790.8 541C772 541 753 541 734.2 541C715.3 541 696.7 541 677.8 541C659 541 640 541 621.2 541C602.3 541 583.7 541 564.8 541C546 541 527 541 508.2 541C489.3 541 470.7 541 451.8 541C433 541 414 541 395.2 541C376.3 541 357.7 541 338.8 541C320 541 301 541 282.2 541C263.3 541 244.7 541 225.8 541C207 541 188 541 169.2 541C150.3 541 131.7 541 112.8 541C94 541 75 541 56.2 541C37.3 541 18.7 541 9.3 541L0 541Z" fill="#2d5f11"></path></svg>