<svg id="visual" viewBox="0 0 960 540" width="960" height="540" xmlns="http://www.w3.org/2000/svg" xmlns:xlink="http://www.w3.org/1999/xlink" version="1.1"><path d="M0 387L14.5 392.7C29 398.3 58 409.7 87.2 419.3C116.3 429 145.7 437 174.8 434.2C204 431.3 233 417.7 262 410.3C291 403 320 402 349 410.2C378 418.3 407 435.7 436.2 438C465.3 440.3 494.7 427.7 523.8 429C553 430.3 582 445.7 611 439.8C640 434 669 407 698 390.8C727 374.7 756 369.3 785.2 379C814.3 388.7 843.7 413.3 872.8 424.5C902 435.7 931 433.3 945.5 432.2L960 431L960 541L945.5 541C931 541 902 541 872.8 541C843.7 541 814.3 541 785.2 541C756 541 727 541 698 541C669 541 640 541 611 541C582 541 553 541 523.8 541C494.7 541 465.3 541 436.2 541C407 541 378 541 349 541C320 541 291 541 262 541C233 541 204 541 174.8 541C145.7 541 116.3 541 87.2 541C58 541 29 541 14.5 541L0 541Z" fill="#98c12a"></path><path d="M0 404L14.5 407.7C29 411.3 58 418.7 87.2 426.8C116.3 435 145.7 444 174.8 443.3C204 442.7 233 432.3 262 432.3C291 432.3 320 442.7 349 441.7C378 440.7 407 428.3 436.2 429.8C465.3 431.3 494.7 446.7 523.8 446C553 445.3 582 428.7 611 418.2C640 407.7 669 403.3 698 407.8C727 412.3 756 425.7 785.2 433C814.3 440.3 843.7 441.7 872.8 446.2C902 450.7 931 458.3 945.5 462.2L960 466L960 541L945.5 541C931 541 902 541 872.8 541C843.7 541 814.3 541 785.2 541C756 541 727 541 698 541C669 541 640 541 611 541C582 541 553 541 523.8 541C494.7 541 465.3 541 436.2 541C407 541 378 541 349 541C320 541 291 541 262 541C233 541 204 541 174.8 541C145.7 541 116.3 541 87.2 541C58 541 29 541 14.5 541L0 541Z" fill="#83b226"></path><path d="M0 430L14.5 432.5C29 435 58 440 87.2 446.2C116.3 452.3 145.7 459.7 174.8 463.3C204 467 233 467 262 466.7C291 466.3 320 465.7 349 470C378 474.3 407 483.7 436.2 477.8C465.3 472 494.7 451 523.8 440C553 429 582 428 611 428.8C640 429.7 669 432.3 698 443.5C727 454.7 756 474.3 785.2 475C814.3 475.7 843.7 457.3 872.8 448.2C902 439 931 439 945.5 439L960 439L960 541L945.5 541C931 541 902 541 872.8 541C843.7 541 814.3 541 785.2 541C756 541 727 541 698 541C669 541 640 541 611 541C582 541 553 541 523.8 541C494.7 541 465.3 541 436.2 541C407 541 378 541 349 541C320 541 291 541 262 541C233 541 204 541 174.8 541C145.7 541 116.3 541 87.2 541C58 541 29 541 14.5 541L0 541Z" fill="#6fa422"></path><path d="M0 487L14.5 483.3C29 479.7 58 472.3 87.2 467.8C116.3 463.3 145.7 461.7 174.8 464.3C204 467 233 474 262 473.2C291 472.3 320 463.7 349 459C378 454.3 407 453.7 436.2 462.8C465.3 472 494.7 491 523.8 496.8C553 502.7 582 495.3 611 486C640 476.7 669 465.3 698 467.3C727 469.3 756 484.7 785.2 486.5C814.3 488.3 843.7 476.7 872.8 475.8C902 475 931 485 945.5 490L960 495L960 541L945.5 541C931 541 902 541 872.8 541C843.7 541 814.3 541 785.2 541C756 541 727 541 698 541C669 541 640 541 611 541C582 541 553 541 523.8 541C494.7 541 465.3 541 436.2 541C407 541 378 541 349 541C320 541 291 541 262 541C233 541 204 541 174.8 541C145.7 541 116.3 541 87.2 541C58 541 29 541 14.5 541L0 541Z" fill="#5c951e"></path><path d="M0 497L14.5 498.3C29 499.7 58 502.3 87.2 500C116.3 497.7 145.7 490.3 174.8 490.3C204 490.3 233 497.7 262 499.3C291 501 320 497 349 497.2C378 497.3 407 501.7 436.2 503.3C465.3 505 494.7 504 523.8 501.5C553 499 582 495 611 497.2C640 499.3 669 507.7 698 510.2C727 512.7 756 509.3 785.2 510.2C814.3 511 843.7 516 872.8 516.7C902 517.3 931 513.7 945.5 511.8L960 510L960 541L945.5 541C931 541 902 541 872.8 541C843.7 541 814.3 541 785.2 541C756 541 727 541 698 541C669 541 640 541 611 541C582 541 553 541 523.8 541C494.7 541 465.3 541 436.2 541C407 541 378 541 349 541C320 541 291 541 262 541C233 541 204 541 174.8 541C145.7 541 116.3 541 87.2 541C58 541 29 541 14.5 541L0 541Z" fill="#49871a"></path></svg>