<svg 
    id="visual" 
    viewBox="0 0 960 540" 
    preserveAspectRatio="none" 
    width="960" 
    height="540" 
    xmlns="http://www.w3.org/2000/svg" 
    xmlns:xlink="http://www.w3.org/1999/xlink" 
    version="1.1">
        <rect 
            x="0" 
            y="0" 
            width="960" 
            height="540" 
            fill="#FFFFFF">
        </rect>
        <defs>
            <linearGradient id="grad1_0" x1="43.8%" y1="100%" x2="100%" y2="0%">
            <stop offset="14.444444444444446%" stop-color="#7cc91f" stop-opacity="1">
            </stop><stop offset="85.55555555555554%" stop-color="#7cc91f" stop-opacity="1"></stop></linearGradient></defs><defs><linearGradient id="grad1_1" x1="43.8%" y1="100%" x2="100%" y2="0%"><stop offset="14.444444444444446%" stop-color="#7cc91f" stop-opacity="1"></stop><stop offset="85.55555555555554%" stop-color="#c3e597" stop-opacity="1"></stop></linearGradient></defs><defs><linearGradient id="grad1_2" x1="43.8%" y1="100%" x2="100%" y2="0%"><stop offset="14.444444444444446%" stop-color="#ffffff" stop-opacity="1"></stop><stop offset="85.55555555555554%" stop-color="#c3e597" stop-opacity="1"></stop></linearGradient></defs><defs><linearGradient id="grad2_0" x1="0%" y1="100%" x2="56.3%" y2="0%"><stop offset="14.444444444444446%" stop-color="#7cc91f" stop-opacity="1"></stop><stop offset="85.55555555555554%" stop-color="#7cc91f" stop-opacity="1"></stop></linearGradient></defs><defs><linearGradient id="grad2_1" x1="0%" y1="100%" x2="56.3%" y2="0%"><stop offset="14.444444444444446%" stop-color="#c3e597" stop-opacity="1"></stop><stop offset="85.55555555555554%" stop-color="#7cc91f" stop-opacity="1"></stop></linearGradient></defs><defs><linearGradient id="grad2_2" x1="0%" y1="100%" x2="56.3%" y2="0%"><stop offset="14.444444444444446%" stop-color="#c3e597" stop-opacity="1"></stop><stop offset="85.55555555555554%" stop-color="#ffffff" stop-opacity="1"></stop></linearGradient></defs><g transform="translate(960, 540)"><path d="M-297 0C-287.6 -29.1 -278.1 -58.3 -270.1 -87.8C-262.1 -117.2 -255.5 -147.1 -240.3 -174.6C-225.1 -202.1 -201.2 -227.2 -172.8 -237.9C-144.4 -248.5 -111.4 -244.6 -81.9 -252C-52.3 -259.5 -26.2 -278.2 0 -297L0 0Z" fill="#e2f2cb"></path><path d="M-198 0C-191.7 -19.4 -185.4 -38.9 -180.1 -58.5C-174.7 -78.2 -170.3 -98.1 -160.2 -116.4C-150 -134.7 -134.1 -151.5 -115.2 -158.6C-96.3 -165.7 -74.3 -163.1 -54.6 -168C-34.9 -173 -17.4 -185.5 0 -198L0 0Z" fill="#a2d762"></path><path d="M-99 0C-95.9 -9.7 -92.7 -19.4 -90 -29.3C-87.4 -39.1 -85.2 -49 -80.1 -58.2C-75 -67.4 -67.1 -75.7 -57.6 -79.3C-48.1 -82.8 -37.1 -81.5 -27.3 -84C-17.4 -86.5 -8.7 -92.7 0 -99L0 0Z" fill="#7cc91f"></path></g><g transform="translate(0, 0)"><path d="M297 0C300.8 35.2 304.5 70.5 282.5 91.8C260.4 113.1 212.5 120.4 184.5 134C156.4 147.6 148.3 167.4 134 184.5C119.8 201.5 99.4 215.7 76 234C52.7 252.2 26.3 274.6 0 297L0 0Z" fill="#e2f2cb"></path><path d="M198 0C200.5 23.5 203 47 188.3 61.2C173.6 75.4 141.7 80.3 123 89.3C104.3 98.4 98.9 111.6 89.3 123C79.8 134.3 66.2 143.8 50.7 156C35.1 168.2 17.6 183.1 0 198L0 0Z" fill="#a2d762"></path><path d="M99 0C100.3 11.7 101.5 23.5 94.2 30.6C86.8 37.7 70.8 40.1 61.5 44.7C52.1 49.2 49.4 55.8 44.7 61.5C39.9 67.2 33.1 71.9 25.3 78C17.6 84.1 8.8 91.5 0 99L0 0Z" fill="#7cc91f"></path></g></svg>